<svg width="128" height="86" viewBox="0 0 128 86" fill="none" xmlns="http://www.w3.org/2000/svg">
<path d="M65.4326 20.0898C59.3084 20.0629 55.0614 20.0898 55.0614 20.0898C55.0614 20.0898 55.0407 22.2677 55.0725 22.2858C55.0725 22.2858 57.8646 22.3318 58.8709 22.5524C59.8771 22.7729 61.595 23.4182 62.7318 26.0093C63.4594 27.6673 63.9125 30.0884 63.3057 32.2575C62.699 34.4266 62.2506 35.6283 62.5197 37.3275C62.7889 39.0267 64.9563 40.675 65.314 41.184C65.6719 40.675 67.627 39.0267 67.8962 37.3275C68.1653 35.6283 67.6423 34.4266 67.0354 32.2575C66.4286 30.0884 66.8817 27.6673 67.6093 26.0093C68.7461 23.4182 70.3021 22.7729 71.3082 22.5524C72.3146 22.3318 75.7184 22.2858 75.7184 22.2858V20.0898C75.3028 20.038 71.557 20.0629 65.4326 20.0898Z" fill="white"/>
<path d="M54.955 0H57.9682L58.286 0.874436L58.6424 0H61.2934L61.7695 0.796794L62.1064 0H72.0142L72.3484 1.48485L73.0297 0L75.6006 0.00100186V16.5117C75.6006 16.5117 75.5901 17.179 74.7403 18.038C73.8905 18.8969 72.169 18.8969 72.169 18.8969V17.2372L71.7386 16.6156L71.3082 17.179H70.3422L70.3496 16.6156L69.8964 16.4942V15.2632L69.6739 14.8819L69.3702 15.2632L69.2169 16.4942L68.7261 16.6156V17.179H67.6093V15.7019L67.0312 15.4604V14.3151L67.6093 13.6976L67.7657 13.3066L67.9683 13.125L68.1831 12.3795H67.2398L66.4616 6.82604L67.0312 6.53972L66.4616 6.2534L66.594 6.00625V5.82283L65.8878 5.23514L65.6009 4.24918L65.314 5.23514L64.6043 5.82283V6.00625L64.7402 6.2534L64.1664 6.53972L64.7402 6.82604L63.9939 12.3795H63.0188L63.3057 13.125L63.5294 13.3066L63.5926 13.6976L64.1653 14.3151V15.4604L63.5926 15.7019V16.5608C63.5926 16.5608 62.7842 16.5217 62.1161 16.1592C61.7002 15.9336 61.4968 15.34 61.2311 14.8374C61.0028 14.4053 60.701 14.7356 60.701 14.7356C60.701 14.7356 60.0885 15.5247 59.5503 15.9455C59.012 16.3665 57.3973 16.4365 57.3973 16.4365C57.3973 16.4365 58.3469 16.8933 58.3975 17.2372C58.3975 17.9554 58.3975 18.8969 58.3975 18.8969C58.3975 18.8969 56.6891 18.8969 55.8153 18.038C54.9414 17.179 54.955 16.5117 54.955 16.5117V0Z" fill="white"/>
<path d="M32.9659 59.3462V57.0811H33.8587C34.5509 57.0811 35.1045 56.882 35.5198 56.4839C35.9351 56.0721 36.1427 55.523 36.1427 54.8366V44.0051H38.572V54.7542C38.572 55.6877 38.3783 56.4976 37.9907 57.184C37.6169 57.8704 37.0702 58.4058 36.3504 58.7902C35.6444 59.1609 34.8139 59.3462 33.8587 59.3462H32.9659Z" fill="white"/>
<path d="M49.2579 59.5933C48.1367 59.5933 47.0916 59.3942 46.1227 58.9961C45.1675 58.598 44.3231 58.042 43.5895 57.3282C42.8697 56.6143 42.3022 55.7769 41.8869 54.816C41.4855 53.855 41.2848 52.8048 41.2848 51.6654C41.2848 50.526 41.4855 49.4758 41.8869 48.5148C42.3022 47.5401 42.8697 46.7027 43.5895 46.0026C44.3093 45.2887 45.1537 44.7396 46.1227 44.3552C47.0916 43.9571 48.1367 43.758 49.2579 43.758C50.393 43.758 51.4381 43.9571 52.3932 44.3552C53.3622 44.7396 54.2066 45.2887 54.9264 46.0026C55.66 46.7164 56.2275 47.5538 56.629 48.5148C57.0304 49.4758 57.2311 50.526 57.2311 51.6654C57.2311 52.8048 57.0235 53.855 56.6082 54.816C56.2068 55.7769 55.6462 56.6143 54.9264 57.3282C54.2066 58.042 53.3622 58.598 52.3932 58.9961C51.4243 59.3942 50.3792 59.5933 49.2579 59.5933ZM49.2579 57.3694C50.0608 57.3694 50.7944 57.2252 51.4589 56.9369C52.1371 56.6486 52.7254 56.2505 53.2238 55.7426C53.7221 55.2209 54.1097 54.6169 54.3865 53.9305C54.6634 53.2304 54.8018 52.4753 54.8018 51.6654C54.8018 50.8554 54.6634 50.1073 54.3865 49.4208C54.1097 48.7345 53.7221 48.1304 53.2238 47.6087C52.7254 47.0871 52.1371 46.6821 51.4589 46.3938C50.7944 46.1055 50.0608 45.9614 49.2579 45.9614C48.4551 45.9614 47.7145 46.1055 47.0362 46.3938C46.3718 46.6821 45.7904 47.0871 45.2921 47.6087C44.7938 48.1304 44.4062 48.7345 44.1294 49.4208C43.8664 50.1073 43.7348 50.8554 43.7348 51.6654C43.7348 52.4753 43.8664 53.2304 44.1294 53.9305C44.4062 54.6169 44.7938 55.2209 45.2921 55.7426C45.7904 56.2505 46.3787 56.6486 47.057 56.9369C47.7353 57.2252 48.4689 57.3694 49.2579 57.3694Z" fill="white"/>
<path d="M67.2169 59.5933C66.1233 59.5933 65.1059 59.3942 64.1646 58.9961C63.2372 58.598 62.4205 58.0489 61.7146 57.3488C61.0224 56.6349 60.4826 55.7975 60.095 54.8366C59.7074 53.8756 59.5136 52.8185 59.5136 51.6654C59.5136 50.526 59.7005 49.4758 60.0742 48.5148C60.4618 47.5401 61.0017 46.7027 61.6938 46.0026C62.3859 45.2887 63.1957 44.7396 64.1231 44.3552C65.0506 43.9571 66.068 43.758 67.1754 43.758C68.2689 43.758 69.2448 43.9434 70.103 44.314C70.9751 44.6847 71.7087 45.172 72.3039 45.7761C72.8992 46.3664 73.3283 47.0116 73.5913 47.7117L71.4111 48.7619C71.0927 47.9245 70.5667 47.2518 69.8331 46.7439C69.0994 46.2222 68.2135 45.9614 67.1754 45.9614C66.151 45.9614 65.2444 46.2016 64.4553 46.6821C63.6663 47.1626 63.0503 47.8284 62.6074 48.6795C62.1783 49.5307 61.9637 50.526 61.9637 51.6654C61.9637 52.8048 62.1852 53.8069 62.6282 54.6718C63.0849 55.5229 63.7079 56.1888 64.4969 56.6692C65.2859 57.136 66.1926 57.3694 67.2169 57.3694C68.0751 57.3694 68.8572 57.1978 69.5632 56.8546C70.283 56.4976 70.8574 56.0034 71.2865 55.3719C71.7156 54.7267 71.9302 53.9785 71.9302 53.1274V52.0772L73.0306 53.0656H67.1754V51.0064H74.3595V52.4479C74.3595 53.5736 74.1657 54.5826 73.7781 55.4749C73.3905 56.3535 72.8645 57.1017 72.2001 57.7194C71.5357 58.3372 70.7744 58.8039 69.9161 59.1197C69.0579 59.4354 68.1582 59.5933 67.2169 59.5933Z" fill="white"/>
<path d="M76.1758 59.3462V57.0811H77.0687C77.7608 57.0811 78.3145 56.882 78.7297 56.4839C79.145 56.0721 79.3526 55.523 79.3526 54.8366V44.0051H81.782V54.7542C81.782 55.6877 81.5882 56.4976 81.2006 57.184C80.8269 57.8704 80.2801 58.4058 79.5603 58.7902C78.8543 59.1609 78.0238 59.3462 77.0687 59.3462H76.1758Z" fill="white"/>
<path d="M83.1756 59.3462L88.6156 44.0051H91.647L97.0871 59.3462H94.4709L93.2874 55.9073H86.996L85.7917 59.3462H83.1756ZM87.702 53.7452H92.5399L89.7991 45.7143H90.4843L87.702 53.7452Z" fill="white"/>
<path d="M0 85.0862L5.44003 69.7452H8.4715L13.9115 85.0862H11.2953L10.1118 81.6474H3.82048L2.6162 85.0862H0ZM4.52644 79.4852H9.36433L6.62355 71.4543H7.30874L4.52644 79.4852Z" fill="white"/>
<path d="M15.7467 85.0862V69.7452H21.3736C22.4117 69.7452 23.3253 69.9374 24.1143 70.3217C24.9034 70.6924 25.5193 71.2415 25.9623 71.9691C26.4191 72.683 26.6475 73.541 26.6475 74.5431C26.6475 75.6002 26.3776 76.5062 25.8377 77.2613C25.3117 78.0163 24.5988 78.5654 23.6991 78.9086L27.2704 85.0862H24.4881L20.6884 78.3938L22.2872 79.3205H18.1968V85.0862H15.7467ZM18.1968 77.1583H21.4151C21.9826 77.1583 22.474 77.0485 22.8893 76.8288C23.3046 76.6092 23.6229 76.3072 23.8444 75.9228C24.0797 75.5247 24.1974 75.0579 24.1974 74.5225C24.1974 73.9871 24.0797 73.5272 23.8444 73.1429C23.6229 72.7447 23.3046 72.4427 22.8893 72.2368C22.474 72.0172 21.9826 71.9073 21.4151 71.9073H18.1968V77.1583Z" fill="white"/>
<path d="M31.6674 85.0862V71.9073H27.5562V69.7452H38.1456V71.9073H34.0967V85.0862H31.6674Z" fill="white"/>
<path d="M39.9775 85.0862V69.7452H42.4276V76.4994H49.591V69.7452H52.0203V85.0862H49.591V78.6615H42.4276V85.0862H39.9775Z" fill="white"/>
<path d="M55.2256 85.0862V69.7452H57.6757V85.0862H55.2256Z" fill="white"/>
<path d="M60.8829 85.0862V69.7452H67.4026C68.3716 69.7452 69.209 69.9168 69.915 70.26C70.6209 70.5894 71.1608 71.0699 71.5345 71.7014C71.9083 72.3192 72.0952 73.0536 72.0952 73.9048C72.0952 74.6461 71.9014 75.3256 71.5138 75.9434C71.14 76.5474 70.5517 77.0279 69.7489 77.3848V76.3552C70.4548 76.6298 71.0293 76.9798 71.4723 77.4054C71.9152 77.8172 72.2336 78.284 72.4274 78.8057C72.635 79.3273 72.7388 79.8764 72.7388 80.453C72.7388 81.8945 72.2613 83.027 71.3062 83.8507C70.3649 84.6744 69.0706 85.0862 67.4234 85.0862H60.8829ZM63.333 82.9241H67.6103C68.4269 82.9241 69.0775 82.7044 69.562 82.2651C70.0465 81.8121 70.2887 81.2149 70.2887 80.4736C70.2887 79.7186 70.0465 79.1214 69.562 78.6821C69.0775 78.2291 68.4269 78.0026 67.6103 78.0026H63.333V82.9241ZM63.333 75.861H67.4649C68.1293 75.861 68.6623 75.6757 69.0637 75.305C69.4651 74.9206 69.6658 74.4196 69.6658 73.8018C69.6658 73.184 69.4651 72.7036 69.0637 72.3604C68.6623 72.0172 68.1293 71.8456 67.4649 71.8456H63.333V75.861Z" fill="white"/>
<path d="M75.2592 85.0862V69.7452H77.7092V85.0862H75.2592Z" fill="white"/>
<path d="M83.6572 85.0862V71.9073H79.546V69.7452H90.1354V71.9073H86.0865V85.0862H83.6572Z" fill="white"/>
<path d="M91.9673 85.0862V69.7452H94.4174V85.0862H91.9673Z" fill="white"/>
<path d="M105.141 85.3333C104.02 85.3333 102.975 85.1343 102.006 84.7362C101.05 84.338 100.206 83.7821 99.4725 83.0682C98.7527 82.3543 98.1851 81.5169 97.7698 80.556C97.3684 79.595 97.1677 78.5448 97.1677 77.4054C97.1677 76.266 97.3684 75.2158 97.7698 74.2548C98.1851 73.2801 98.7527 72.4427 99.4725 71.7426C100.192 71.0287 101.037 70.4796 102.006 70.0952C102.975 69.6971 104.02 69.4981 105.141 69.4981C106.276 69.4981 107.321 69.6971 108.276 70.0952C109.245 70.4796 110.09 71.0287 110.809 71.7426C111.543 72.4565 112.11 73.2939 112.512 74.2548C112.913 75.2158 113.114 76.266 113.114 77.4054C113.114 78.5448 112.906 79.595 112.491 80.556C112.09 81.5169 111.529 82.3543 110.809 83.0682C110.09 83.7821 109.245 84.338 108.276 84.7362C107.307 85.1343 106.262 85.3333 105.141 85.3333ZM105.141 83.1094C105.944 83.1094 106.677 82.9652 107.342 82.677C108.02 82.3887 108.608 81.9906 109.107 81.4826C109.605 80.961 109.993 80.3569 110.269 79.6705C110.546 78.9704 110.685 78.2154 110.685 77.4054C110.685 76.5955 110.546 75.8473 110.269 75.1609C109.993 74.4745 109.605 73.8704 109.107 73.3488C108.608 72.8271 108.02 72.4221 107.342 72.1339C106.677 71.8456 105.944 71.7014 105.141 71.7014C104.338 71.7014 103.597 71.8456 102.919 72.1339C102.255 72.4221 101.673 72.8271 101.175 73.3488C100.677 73.8704 100.289 74.4745 100.012 75.1609C99.7493 75.8473 99.6178 76.5955 99.6178 77.4054C99.6178 78.2154 99.7493 78.9704 100.012 79.6705C100.289 80.3569 100.677 80.961 101.175 81.4826C101.673 81.9906 102.262 82.3887 102.94 82.677C103.618 82.9652 104.352 83.1094 105.141 83.1094Z" fill="white"/>
<path d="M115.853 85.0862V69.7452H117.826L126.505 81.6268L125.571 81.7709V69.7452H128V85.0862H126.027L117.411 73.1223L118.303 72.9575V85.0862H115.853Z" fill="white"/>
</svg>
