<svg width="72" height="49" viewBox="0 0 72 49" fill="none" xmlns="http://www.w3.org/2000/svg">
<path d="M36.8059 11.3005C33.361 11.2854 30.972 11.3005 30.972 11.3005C30.972 11.3005 30.9604 12.5256 30.9783 12.5358C30.9783 12.5358 32.5488 12.5617 33.1149 12.6857C33.6809 12.8097 34.6472 13.1728 35.2867 14.6302C35.6959 15.5629 35.9508 16.9247 35.6094 18.1448C35.2682 19.3649 35.0159 20.0409 35.1673 20.9967C35.3187 21.9525 36.5379 22.8797 36.7391 23.166C36.9404 22.8797 38.0402 21.9525 38.1916 20.9967C38.343 20.0409 38.0488 19.3649 37.7074 18.1448C37.3661 16.9247 37.6209 15.5628 38.0302 14.6302C38.6697 13.1728 39.5449 12.8097 40.1109 12.6857C40.6769 12.5617 42.5916 12.5358 42.5916 12.5358V11.3005C42.3578 11.2714 40.2508 11.2854 36.8059 11.3005Z" fill="#212121"/>
<path d="M30.9122 0H32.6071L32.7859 0.49187L32.9863 0H34.4775L34.7454 0.448197L34.9349 0H40.508L40.6959 0.835228L41.0792 0L42.5253 0.000563549V9.28783C42.5253 9.28783 42.5194 9.66319 42.0414 10.1464C41.5634 10.6295 40.595 10.6295 40.595 10.6295V9.6959L40.353 9.34626L40.1109 9.66319H39.5675L39.5717 9.34626L39.3167 9.27798V8.58557L39.1916 8.37109L39.0207 8.58557L38.9345 9.27798L38.6584 9.34626V9.66319H38.0302V8.8323L37.7051 8.69648V8.05227L38.0302 7.70492L38.1182 7.48495L38.2321 7.38282L38.353 6.96345H37.8224L37.3847 3.83965L37.7051 3.67859L37.3847 3.51754L37.4591 3.37851V3.27534L37.0619 2.94477L36.9005 2.39016L36.7391 2.94477L36.3399 3.27534V3.37851L36.4164 3.51754L36.0936 3.67859L36.4164 3.83965L35.9966 6.96345H35.448L35.6094 7.38282L35.7353 7.48495L35.7708 7.70492L36.093 8.05227V8.69648L35.7708 8.8323V9.31545C35.7708 9.31545 35.3161 9.29348 34.9403 9.08956C34.7064 8.96266 34.5919 8.62877 34.4425 8.34606C34.3141 8.10299 34.1443 8.28875 34.1443 8.28875C34.1443 8.28875 33.7998 8.73267 33.497 8.96936C33.1943 9.20613 32.286 9.24553 32.286 9.24553C32.286 9.24553 32.8201 9.50248 32.8486 9.6959C32.8486 10.0999 32.8486 10.6295 32.8486 10.6295C32.8486 10.6295 31.8876 10.6295 31.3961 10.1464C30.9045 9.66319 30.9122 9.28783 30.9122 9.28783V0Z" fill="#212121"/>
<path d="M18.5433 34.3822V33.1081H19.0455C19.4349 33.1081 19.7463 32.9961 19.9799 32.7722C20.2135 32.5406 20.3303 32.2317 20.3303 31.8456V25.7529H21.6968V31.7992C21.6968 32.3243 21.5878 32.7799 21.3698 33.166C21.1595 33.5521 20.852 33.8533 20.4471 34.0695C20.05 34.278 19.5828 34.3822 19.0455 34.3822H18.5433Z" fill="#212121"/>
<path d="M27.7076 34.5212C27.0769 34.5212 26.489 34.4093 25.944 34.1853C25.4067 33.9614 24.9318 33.6487 24.5191 33.2471C24.1142 32.8456 23.795 32.3745 23.5614 31.834C23.3356 31.2934 23.2227 30.7027 23.2227 30.0618C23.2227 29.4209 23.3356 28.8301 23.5614 28.2896C23.795 27.7413 24.1142 27.2703 24.5191 26.8765C24.924 26.4749 25.3989 26.166 25.944 25.9498C26.489 25.7259 27.0769 25.6139 27.7076 25.6139C28.3461 25.6139 28.9339 25.7259 29.4712 25.9498C30.0162 26.166 30.4912 26.4749 30.8961 26.8765C31.3088 27.278 31.628 27.749 31.8538 28.2896C32.0796 28.8301 32.1925 29.4209 32.1925 30.0618C32.1925 30.7027 32.0757 31.2934 31.8421 31.834C31.6163 32.3745 31.301 32.8456 30.8961 33.2471C30.4912 33.6487 30.0162 33.9614 29.4712 34.1853C28.9261 34.4093 28.3383 34.5212 27.7076 34.5212ZM27.7076 33.2703C28.1592 33.2703 28.5719 33.1892 28.9456 33.027C29.3271 32.8649 29.6581 32.6409 29.9384 32.3552C30.2187 32.0618 30.4367 31.722 30.5924 31.3359C30.7481 30.9421 30.826 30.5174 30.826 30.0618C30.826 29.6062 30.7481 29.1853 30.5924 28.7992C30.4367 28.4131 30.2187 28.0734 29.9384 27.7799C29.6581 27.4865 29.3271 27.2587 28.9456 27.0965C28.5719 26.9344 28.1592 26.8533 27.7076 26.8533C27.256 26.8533 26.8394 26.9344 26.4579 27.0965C26.0841 27.2587 25.7571 27.4865 25.4768 27.7799C25.1965 28.0734 24.9785 28.4131 24.8228 28.7992C24.6748 29.1853 24.6009 29.6062 24.6009 30.0618C24.6009 30.5174 24.6748 30.9421 24.8228 31.3359C24.9785 31.722 25.1965 32.0618 25.4768 32.3552C25.7571 32.6409 26.088 32.8649 26.4696 33.027C26.8511 33.1892 27.2638 33.2703 27.7076 33.2703Z" fill="#212121"/>
<path d="M37.8095 34.5212C37.1944 34.5212 36.6221 34.4093 36.0926 34.1853C35.5709 33.9614 35.1115 33.6525 34.7144 33.2587C34.3251 32.8572 34.0215 32.3861 33.8034 31.8456C33.5854 31.305 33.4764 30.7104 33.4764 30.0618C33.4764 29.4209 33.5815 28.8301 33.7918 28.2896C34.0098 27.7413 34.3134 27.2703 34.7028 26.8765C35.0921 26.4749 35.5476 26.166 36.0693 25.9498C36.5909 25.7259 37.1632 25.6139 37.7861 25.6139C38.4013 25.6139 38.9502 25.7182 39.4329 25.9266C39.9235 26.1351 40.3362 26.4093 40.671 26.749C41.0058 27.0811 41.2471 27.444 41.3951 27.8378L40.1687 28.4286C39.9897 27.9575 39.6938 27.5792 39.2811 27.2934C38.8684 27 38.3701 26.8533 37.7861 26.8533C37.2099 26.8533 36.6999 26.9884 36.2561 27.2587C35.8123 27.529 35.4658 27.9035 35.2167 28.3822C34.9753 28.861 34.8546 29.4209 34.8546 30.0618C34.8546 30.7027 34.9792 31.2664 35.2283 31.7529C35.4853 32.2317 35.8357 32.6062 36.2795 32.8765C36.7233 33.139 37.2333 33.2703 37.8095 33.2703C38.2922 33.2703 38.7322 33.1738 39.1293 32.9807C39.5342 32.7799 39.8573 32.5019 40.0987 32.1467C40.34 31.7838 40.4607 31.3629 40.4607 30.8842V30.2934L41.0797 30.8494H37.7861V29.6911H41.8272V30.5019C41.8272 31.1351 41.7182 31.7027 41.5002 32.2046C41.2822 32.6989 40.9863 33.1197 40.6126 33.4672C40.2388 33.8147 39.8106 34.0772 39.3278 34.2548C38.8451 34.4324 38.339 34.5212 37.8095 34.5212Z" fill="#212121"/>
<path d="M42.8489 34.3822V33.1081H43.3511C43.7404 33.1081 44.0519 32.9961 44.2855 32.7722C44.5191 32.5406 44.6359 32.2317 44.6359 31.8456V25.7529H46.0024V31.7992C46.0024 32.3243 45.8934 32.7799 45.6753 33.166C45.4651 33.5521 45.1575 33.8533 44.7527 34.0695C44.3556 34.278 43.8884 34.3822 43.3511 34.3822H42.8489Z" fill="#212121"/>
<path d="M46.7863 34.3822L49.8463 25.7529H51.5515L54.6115 34.3822H53.1399L52.4741 32.4479H48.9353L48.2579 34.3822H46.7863ZM49.3324 31.2317H52.0537L50.512 26.7143H50.8974L49.3324 31.2317Z" fill="#212121"/>
<path d="M0 48.861L3.06002 40.2317H4.76522L7.82523 48.861H6.35362L5.68789 46.9267H2.14902L1.47161 48.861H0ZM2.54612 45.7104H5.26743L3.72575 41.1931H4.11117L2.54612 45.7104Z" fill="#212121"/>
<path d="M8.8575 48.861V40.2317H12.0226C12.6066 40.2317 13.1205 40.3398 13.5643 40.556C14.0081 40.7645 14.3546 41.0734 14.6038 41.4826C14.8607 41.8842 14.9892 42.3668 14.9892 42.9305C14.9892 43.5251 14.8374 44.0348 14.5337 44.4595C14.2378 44.8842 13.8368 45.1931 13.3307 45.3861L15.3396 48.861H13.7745L11.6372 45.0965L12.5365 45.6178H10.2357V48.861H8.8575ZM10.2357 44.4016H12.046C12.3652 44.4016 12.6416 44.3398 12.8752 44.2162C13.1088 44.0927 13.2879 43.9228 13.4125 43.7066C13.5449 43.4826 13.611 43.2201 13.611 42.9189C13.611 42.6178 13.5449 42.3591 13.4125 42.1429C13.2879 41.9189 13.1088 41.749 12.8752 41.6332C12.6416 41.5097 12.3652 41.4479 12.046 41.4479H10.2357V44.4016Z" fill="#212121"/>
<path d="M17.8129 48.861V41.4479H15.5004V40.2317H21.4569V41.4479H19.1794V48.861H17.8129Z" fill="#212121"/>
<path d="M22.4873 48.861V40.2317H23.8655V44.0309H27.8949V40.2317H29.2614V48.861H27.8949V45.2471H23.8655V48.861H22.4873Z" fill="#212121"/>
<path d="M31.0644 48.861V40.2317H32.4426V48.861H31.0644Z" fill="#212121"/>
<path d="M34.2466 48.861V40.2317H37.914C38.459 40.2317 38.9301 40.3282 39.3272 40.5212C39.7243 40.7066 40.028 40.9768 40.2382 41.3321C40.4484 41.6795 40.5535 42.0927 40.5535 42.5714C40.5535 42.9884 40.4445 43.3707 40.2265 43.7182C40.0163 44.0579 39.6854 44.3282 39.2337 44.529V43.9498C39.6309 44.1043 39.954 44.3012 40.2031 44.5406C40.4523 44.7722 40.6314 45.0348 40.7404 45.3282C40.8572 45.6216 40.9156 45.9305 40.9156 46.2548C40.9156 47.0656 40.647 47.7027 40.1097 48.166C39.5802 48.6294 38.8522 48.861 37.9257 48.861H34.2466ZM35.6248 47.6448H38.0308C38.4902 47.6448 38.8561 47.5212 39.1286 47.2741C39.4012 47.0193 39.5374 46.6834 39.5374 46.2664C39.5374 45.8417 39.4012 45.5058 39.1286 45.2587C38.8561 45.0039 38.4902 44.8765 38.0308 44.8765H35.6248V47.6448ZM35.6248 43.6718H37.949C38.3228 43.6718 38.6225 43.5676 38.8483 43.3591C39.0741 43.1429 39.187 42.861 39.187 42.5135C39.187 42.166 39.0741 41.8958 38.8483 41.7027C38.6225 41.5097 38.3228 41.4131 37.949 41.4131H35.6248V43.6718Z" fill="#212121"/>
<path d="M42.3333 48.861V40.2317H43.7115V48.861H42.3333Z" fill="#212121"/>
<path d="M47.0572 48.861V41.4479H44.7446V40.2317H50.7011V41.4479H48.4237V48.861H47.0572Z" fill="#212121"/>
<path d="M51.7316 48.861V40.2317H53.1098V48.861H51.7316Z" fill="#212121"/>
<path d="M59.1417 49C58.5111 49 57.9232 48.888 57.3781 48.6641C56.8409 48.4402 56.3659 48.1274 55.9533 47.7259C55.5484 47.3243 55.2291 46.8533 54.9955 46.3128C54.7697 45.7722 54.6568 45.1815 54.6568 44.5406C54.6568 43.8996 54.7697 43.3089 54.9955 42.7683C55.2291 42.2201 55.5484 41.749 55.9533 41.3552C56.3581 40.9537 56.8331 40.6448 57.3781 40.4286C57.9232 40.2046 58.5111 40.0927 59.1417 40.0927C59.7802 40.0927 60.3681 40.2046 60.9053 40.4286C61.4504 40.6448 61.9254 40.9537 62.3302 41.3552C62.7429 41.7568 63.0621 42.2278 63.2879 42.7683C63.5138 43.3089 63.6267 43.8996 63.6267 44.5406C63.6267 45.1815 63.5099 45.7722 63.2763 46.3128C63.0505 46.8533 62.7351 47.3243 62.3302 47.7259C61.9254 48.1274 61.4504 48.4402 60.9053 48.6641C60.3603 48.888 59.7724 49 59.1417 49ZM59.1417 47.749C59.5933 47.749 60.006 47.668 60.3798 47.5058C60.7613 47.3436 61.0922 47.1197 61.3725 46.834C61.6528 46.5405 61.8708 46.2008 62.0266 45.8147C62.1823 45.4209 62.2602 44.9961 62.2602 44.5406C62.2602 44.085 62.1823 43.6641 62.0266 43.278C61.8708 42.8919 61.6528 42.5521 61.3725 42.2587C61.0922 41.9653 60.7613 41.7375 60.3798 41.5753C60.006 41.4131 59.5933 41.3321 59.1417 41.3321C58.6901 41.3321 58.2736 41.4131 57.892 41.5753C57.5183 41.7375 57.1913 41.9653 56.911 42.2587C56.6307 42.5521 56.4126 42.8919 56.2569 43.278C56.109 43.6641 56.035 44.085 56.035 44.5406C56.035 44.9961 56.109 45.4209 56.2569 45.8147C56.4126 46.2008 56.6307 46.5405 56.911 46.834C57.1913 47.1197 57.5222 47.3436 57.9037 47.5058C58.2853 47.668 58.6979 47.749 59.1417 47.749Z" fill="#212121"/>
<path d="M65.1675 48.861V40.2317H66.2771L71.1591 46.9151L70.6335 46.9961V40.2317H72V48.861H70.8905L66.0435 42.1313L66.5457 42.0386V48.861H65.1675Z" fill="#212121"/>
</svg>
