<svg width="20" height="16" viewBox="0 0 20 16" fill="none" xmlns="http://www.w3.org/2000/svg">
<path d="M17.7055 3.978C17.7185 4.153 17.7185 4.327 17.7185 4.501C17.7185 9.826 13.6655 15.962 6.25851 15.962C3.97651 15.962 1.85651 15.301 0.0725098 14.153C0.39651 14.19 0.70851 14.203 1.04551 14.203C2.92851 14.203 4.66151 13.567 6.04651 12.482C4.27551 12.445 2.79151 11.285 2.27951 9.689C2.52851 9.726 2.77851 9.751 3.04051 9.751C3.40151 9.751 3.76451 9.701 4.10151 9.614C2.25451 9.24 0.87151 7.619 0.87151 5.661V5.611C1.40851 5.91 2.03151 6.097 2.69151 6.122C1.60651 5.4 0.89551 4.165 0.89551 2.768C0.89551 2.02 1.09451 1.334 1.44351 0.736C3.42651 3.179 6.40751 4.776 9.74951 4.951C9.68751 4.651 9.64951 4.34 9.64951 4.028C9.64951 1.808 11.4455 0 13.6775 0C14.8375 0 15.8845 0.486 16.6205 1.272C17.5305 1.097 18.4025 0.76 19.1765 0.299C18.8775 1.234 18.2405 2.02 17.4055 2.519C18.2165 2.431 19.0025 2.207 19.7245 1.895C19.1765 2.693 18.4915 3.404 17.7055 3.978Z" fill="white"/>
</svg>
